<svg width="81" height="81" viewBox="0 0 81 81" fill="none" xmlns="http://www.w3.org/2000/svg">
<rect width="81" height="81" rx="20" fill="white"/>
<g clip-path="url(#clip0_2930_2071)">
<path d="M53.407 52.4088H53.4641C53.4995 52.4115 53.535 52.4115 53.5705 52.4088C55.5061 51.8644 65.7656 42.2705 65.9939 39.4217C66.2222 36.5728 59.86 36.9902 59.86 36.9902C56.7464 36.9461 49.4812 37.0187 46.954 36.9902C46.954 36.9902 40.5995 36.5728 40.8201 39.4217C41.0406 42.2705 51.3053 51.8644 53.2435 52.4088C53.2789 52.4115 53.3145 52.4115 53.3499 52.4088H53.407Z" fill="#212121"/>
<path d="M37.5212 62C33.2647 62.0005 29.1037 60.74 25.5643 58.3779C22.0249 56.0157 19.2662 52.6581 17.6369 48.7295C16.0077 44.8009 15.5812 40.4779 16.4113 36.3071C17.2413 32.1364 19.2908 28.3052 22.3004 25.2981C25.3099 22.291 29.1445 20.2431 33.3192 19.4133C37.4938 18.5835 41.821 19.0091 45.7535 20.6363C49.686 22.2635 53.0472 25.0193 55.412 28.555C57.7768 32.0907 59.0391 36.2476 59.0391 40.5H48.6006C48.6006 38.3102 47.9505 36.1695 46.7327 34.3488C45.5149 32.5281 43.784 31.109 41.7589 30.2711C39.7337 29.4332 37.5054 29.2141 35.3556 29.6415C33.2058 30.0689 31.2312 31.1236 29.6815 32.6723C28.1317 34.2209 27.0765 36.1939 26.6492 38.3417C26.2219 40.4895 26.4417 42.7157 27.2809 44.7387C28.12 46.7617 29.5409 48.4906 31.3636 49.7068C33.1864 50.9231 35.3292 51.572 37.5212 51.5715C38.7465 51.5749 39.9638 51.3733 41.1226 50.9752C41.5638 50.8168 42.0473 50.8224 42.4846 50.9909C42.922 51.1594 43.2841 51.4796 43.5045 51.8929L46.5793 57.7332C46.7061 57.9709 46.7818 58.2325 46.8013 58.5011C46.8208 58.7698 46.7838 59.0395 46.6927 59.293C46.6015 59.5465 46.4582 59.7781 46.2719 59.9729C46.0857 60.1677 45.8607 60.3213 45.6114 60.4239C43.0409 61.4631 40.2942 61.9982 37.5212 62Z" fill="#212121"/>
</g>
<defs>
<clipPath id="clip0_2930_2071">
<rect width="50" height="43" fill="white" transform="translate(16 19)"/>
</clipPath>
</defs>
</svg>
