<svg width="81" height="81" viewBox="0 0 81 81" fill="none" xmlns="http://www.w3.org/2000/svg">
<rect width="81" height="81" rx="20" fill="white"/>
<g clip-path="url(#clip0_2930_2076)">
<path d="M60.9894 40.4292C60.6298 35.7333 43.905 19.9242 40.766 19.0204C40.7075 19.014 40.6486 19.014 40.5901 19.0204H40.4983H40.4065C40.348 19.014 40.289 19.014 40.2305 19.0204C39.1264 19.3343 36.3547 21.4861 33.2055 24.3365C33.2055 22.3114 33.1494 20.7924 33.0271 20.6329C32.6216 20.0836 25.4513 20.0836 25.0484 20.6329C24.7755 21.0025 24.8699 28.0781 24.9591 32.6956C22.1874 35.8802 20.1322 38.8065 20.0072 40.4216C19.8313 42.7152 22.2129 43.7126 24.6939 44.153C24.3293 49.3932 23.6587 61.0078 24.8827 61.5369C25.4156 61.7647 28.9625 61.9191 33.4758 61.9926C33.6839 61.9978 33.8908 61.9609 34.084 61.884C34.2771 61.8072 34.4525 61.692 34.5993 61.5455C34.7461 61.3991 34.8612 61.2244 34.9377 61.0323C35.0142 60.8402 35.0503 60.6345 35.044 60.428C34.9369 55.8891 34.863 49.9907 35.1919 49.654C35.73 49.1047 45.2666 49.1047 45.8046 49.654C46.1336 49.9907 46.0596 55.8891 45.9551 60.428C45.9488 60.6345 45.985 60.8402 46.0614 61.0323C46.1379 61.2244 46.2531 61.3991 46.3999 61.5455C46.5467 61.692 46.722 61.8072 46.9152 61.884C47.1083 61.9609 47.3152 61.9978 47.5233 61.9926C52.0417 61.9191 55.581 61.7647 56.1139 61.5369C57.3379 61.0078 56.6698 49.3857 56.3026 44.153C58.7837 43.7303 61.1653 42.7228 60.9894 40.4292Z" fill="#212121"/>
</g>
<defs>
<clipPath id="clip0_2930_2076">
<rect width="41" height="43" fill="white" transform="translate(20 19)"/>
</clipPath>
</defs>
</svg>
